<svg width="77" height="77" fill="none" xmlns="http://www.w3.org/2000/svg"><path d="M0 38.502C0 17.236 17.238 0 38.5 0v.809c-10.409 0-19.83 4.218-26.651 11.04C5.027 18.67.809 28.09.809 38.5s4.218 19.829 11.04 26.65c6.822 6.822 16.242 11.04 26.65 11.04 10.41 0 19.83-4.218 26.652-11.04 6.822-6.821 11.04-16.24 11.04-26.65S71.973 18.67 65.15 11.848C58.33 5.027 48.91.81 38.5.81V0C59.763 0 77 17.236 77 38.502 77 59.763 59.763 77 38.5 77 17.238 77 0 59.764 0 38.502Z" fill="#C5C9CC"/><path d="m38.5 27.51.26-.073c-12.946 4.018-23.19 10.902-23.4 15.957-.225 5.41 11.13 6.68 25.353 2.836 14.224-3.844 25.942-11.35 26.167-16.76.116-2.804-2.879-4.495-7.77-4.94 5.978.268 9.722 2.01 9.722 5.121 0 5.929-13.583 14.585-30.332 19.332-16.748 4.747-30.332 3.788-30.332-2.141 0-5.928 13.584-14.586 30.333-19.332Z" fill="#A0A4A7"/><path d="m14.111 58.684 42.05-40.367-3.813 31.733-6.952-7.961-31.285 16.595Z" fill="#E63F3F"/></svg>